<!-- Placeholder SVG for products without images -->
<svg width="64" height="64" viewBox="0 0 64 64" fill="none" xmlns="http://www.w3.org/2000/svg">
  <rect width="64" height="64" fill="#F3F4F6"/>
  <path d="M32 20C29.7909 20 28 21.7909 28 24C28 26.2091 29.7909 28 32 28C34.2091 28 36 26.2091 36 24C36 21.7909 34.2091 20 32 20Z" fill="#9CA3AF"/>
  <path d="M20 44L24.5 36L32 40L39.5 32L44 44H20Z" fill="#9CA3AF"/>
  <path d="M16 16H48C49.1046 16 50 16.8954 50 18V46C50 47.1046 49.1046 48 48 48H16C14.8954 48 14 47.1046 14 46V18C14 16.8954 14.8954 16 16 16Z" stroke="#9CA3AF" stroke-width="2" fill="none"/>
</svg>
